<svg xmlns="http://www.w3.org/2000/svg" xmlns:xlink="http://www.w3.org/1999/xlink" width="500" zoomAndPan="magnify" viewBox="0 0 375 374.999991" height="500" preserveAspectRatio="xMidYMid meet" version="1.0"><defs><g/><clipPath id="202282c638"><path d="M 140.359375 239.652344 L 218.902344 239.652344 L 218.902344 332.722656 L 140.359375 332.722656 Z M 140.359375 239.652344 " clip-rule="nonzero"/></clipPath><clipPath id="4de65471e1"><path d="M 138.507812 127.398438 L 236.097656 127.398438 L 236.097656 214.445312 L 138.507812 214.445312 Z M 138.507812 127.398438 " clip-rule="nonzero"/></clipPath><clipPath id="9f1b82482b"><path d="M 187.289062 127.398438 L 236.066406 214.445312 L 138.507812 214.445312 Z M 187.289062 127.398438 " clip-rule="nonzero"/></clipPath></defs><rect x="-37.5" width="450" fill="#ffffff" y="-37.499999" height="449.999989" fill-opacity="1"/><rect x="-37.5" width="450" fill="#ffffff" y="-37.499999" height="449.999989" fill-opacity="1"/><g fill="#81a1c1" fill-opacity="1"><g transform="translate(162.49706, 282.373685)"><g><path d="M 109.6875 -125.25 C 104.050781 -136.882812 100.867188 -142.703125 100.140625 -142.703125 C 99.773438 -142.703125 96.410156 -136.703125 90.046875 -124.703125 C 84.398438 -113.054688 78.671875 -102.140625 72.859375 -91.953125 C 67.578125 -81.765625 64.9375 -76.582031 64.9375 -76.40625 C 64.9375 -76.21875 76.398438 -75.941406 99.328125 -75.578125 C 122.242188 -75.398438 133.972656 -75.582031 134.515625 -76.125 C 134.878906 -76.488281 126.601562 -92.863281 109.6875 -125.25 Z M 93.3125 -176.8125 L 107.234375 -176.8125 L 109.6875 -172.171875 C 115.6875 -160.710938 121.640625 -149.207031 127.546875 -137.65625 C 133.460938 -126.101562 139.332031 -114.597656 145.15625 -103.140625 C 147.707031 -98.410156 149.890625 -94.363281 151.703125 -91 C 153.523438 -87.632812 155.070312 -84.769531 156.34375 -82.40625 C 161.625 -72.582031 166.628906 -63.347656 171.359375 -54.703125 C 176.085938 -46.066406 180.453125 -37.65625 184.453125 -29.46875 L 194.546875 -9.28125 L 168.90625 -9.28125 L 157.4375 -32.75 L 146.25 -56.203125 L 53.75 -56.203125 L 42.015625 -32.75 L 30.5625 -9.28125 L 17.1875 -9.28125 C 9.550781 -9.28125 5.734375 -9.460938 5.734375 -9.828125 Z M 93.3125 -176.8125 "/></g></g></g><g fill="#81a1c1" fill-opacity="1"><g transform="translate(12.218738, 282.373685)"><g><path d="M 109.6875 -125.25 C 104.050781 -136.882812 100.867188 -142.703125 100.140625 -142.703125 C 99.773438 -142.703125 96.410156 -136.703125 90.046875 -124.703125 C 84.398438 -113.054688 78.671875 -102.140625 72.859375 -91.953125 C 67.578125 -81.765625 64.9375 -76.582031 64.9375 -76.40625 C 64.9375 -76.21875 76.398438 -75.941406 99.328125 -75.578125 C 122.242188 -75.398438 133.972656 -75.582031 134.515625 -76.125 C 134.878906 -76.488281 126.601562 -92.863281 109.6875 -125.25 Z M 93.3125 -176.8125 L 107.234375 -176.8125 L 109.6875 -172.171875 C 115.6875 -160.710938 121.640625 -149.207031 127.546875 -137.65625 C 133.460938 -126.101562 139.332031 -114.597656 145.15625 -103.140625 C 147.707031 -98.410156 149.890625 -94.363281 151.703125 -91 C 153.523438 -87.632812 155.070312 -84.769531 156.34375 -82.40625 C 161.625 -72.582031 166.628906 -63.347656 171.359375 -54.703125 C 176.085938 -46.066406 180.453125 -37.65625 184.453125 -29.46875 L 194.546875 -9.28125 L 168.90625 -9.28125 L 157.4375 -32.75 L 146.25 -56.203125 L 53.75 -56.203125 L 42.015625 -32.75 L 30.5625 -9.28125 L 17.1875 -9.28125 C 9.550781 -9.28125 5.734375 -9.460938 5.734375 -9.828125 Z M 93.3125 -176.8125 "/></g></g></g><g fill="#5e81ac" fill-opacity="1"><g transform="translate(54.075337, 313.798036)"><g><path d="M 146.015625 -166.71875 C 138.515625 -182.21875 134.28125 -189.96875 133.3125 -189.96875 C 132.820312 -189.96875 128.34375 -181.976562 119.875 -166 C 112.363281 -150.5 104.734375 -135.96875 96.984375 -122.40625 C 89.960938 -108.84375 86.453125 -101.941406 86.453125 -101.703125 C 86.453125 -101.460938 101.707031 -101.097656 132.21875 -100.609375 C 162.726562 -100.367188 178.347656 -100.613281 179.078125 -101.34375 C 179.554688 -101.820312 168.535156 -123.613281 146.015625 -166.71875 Z M 124.21875 -235.375 L 142.75 -235.375 L 146.015625 -229.203125 C 154.003906 -213.941406 161.929688 -198.625 169.796875 -183.25 C 177.671875 -167.875 185.484375 -152.554688 193.234375 -137.296875 C 196.628906 -131.003906 199.535156 -125.617188 201.953125 -121.140625 C 204.378906 -116.660156 206.441406 -112.847656 208.140625 -109.703125 C 215.160156 -96.617188 221.816406 -84.328125 228.109375 -72.828125 C 234.410156 -61.328125 240.222656 -50.128906 245.546875 -39.234375 L 258.984375 -12.34375 L 224.84375 -12.34375 L 209.59375 -43.59375 L 194.6875 -74.828125 L 71.5625 -74.828125 L 55.9375 -43.59375 L 40.6875 -12.34375 L 22.890625 -12.34375 C 12.710938 -12.34375 7.625 -12.585938 7.625 -13.078125 Z M 124.21875 -235.375 "/></g></g></g><g clip-path="url(#202282c638)"><path fill="#ffffff" d="M 140.359375 239.652344 L 218.902344 239.652344 L 218.902344 332.613281 L 140.359375 332.613281 Z M 140.359375 239.652344 " fill-opacity="1" fill-rule="nonzero"/></g><g clip-path="url(#4de65471e1)"><g clip-path="url(#9f1b82482b)"><path fill="#ffffff" d="M 138.507812 127.398438 L 236.097656 127.398438 L 236.097656 214.445312 L 138.507812 214.445312 Z M 138.507812 127.398438 " fill-opacity="1" fill-rule="nonzero"/></g></g></svg>